# xmcd CD database file
#
# Track frame offsets:
#	150
#	17258
#	30951
#	43045
#	57801
#	73222
#	89730
#	102227
#	116525
#	132061
#	147165
#
# Disc length: 2106 seconds
#
# Revision: 0
# Processed by: cddbd v1.5.2PL0 Copyright (c) Steve Scherf et al.
# Submitted via: CDex 1.70beta1
#
DISCID=8d08380b
DTITLE=Del Rey - Blue Uke: At The Uke Shack #2
DYEAR=2008
DGENRE=Blues
TTITLE0=Tennessee Local
TTITLE1=Suitcase Breakdown
TTITLE2=High Society
TTITLE3=Thank You Bird
TTITLE4=Up The Country
TTITLE5=New Oldtime Hula Blues
TTITLE6=Old Lizzie
TTITLE7=Keep It Clean
TTITLE8=Land Of Calypso
TTITLE9=You Run And Tell
TTITLE10=Sideman
EXTD=YEAR: 2008
EXTT0=
EXTT1=
EXTT2=
EXTT3=
EXTT4=
EXTT5=
EXTT6=
EXTT7=
EXTT8=
EXTT9=
EXTT10=
PLAYORDER=
